<?xml version="1.0" encoding="utf-8"?>
<!-- Generator: Adobe Illustrator 16.0.0, SVG Export Plug-In . SVG Version: 6.00 Build 0)  -->
<!DOCTYPE svg PUBLIC "-//W3C//DTD SVG 1.1//EN" "http://www.w3.org/Graphics/SVG/1.1/DTD/svg11.dtd">
<svg version="1.1" id="objects" xmlns="http://www.w3.org/2000/svg" xmlns:xlink="http://www.w3.org/1999/xlink" x="0px" y="0px"
	 width="800px" height="600px" viewBox="0 0 800 600" enable-background="new 0 0 800 600" xml:space="preserve">
<g display="none">
	<path display="inline" fill="#F1F2F2" d="M783.529,144.706c0-63.529-51.765-115.294-115.294-115.294H127.059
		c-63.529,0-115.294,51.765-115.294,115.294v309.411c0,63.53,51.765,115.295,115.294,115.295h541.177
		c63.529,0,115.294-51.765,115.294-115.295V144.706z M320,429.412V138.824l220,144.706L320,429.412z"/>
</g>
<path fill="#F1F2F2" d="M523.194,303.301h-77.249V578.34H331.346V303.301h-54.329v-97.623h54.329V142.86
	c0-44.991,21.222-115.449,115.449-115.449h84.889v94.227h-61.12c-10.187,0-24.618,5.093-24.618,26.315v57.725h87.436
	L523.194,303.301z"/>
</svg>
